<svg xmlns="http://www.w3.org/2000/svg" viewBox="0 0 96 22">
  <defs>
    <style>
      .cls-1 {
        fill: #fff;
      }
    </style>
  </defs>
  <path id="Binman" class="cls-1" d="M94.91,22a1.054,1.054,0,0,1-.771-.322,1.067,1.067,0,0,1-.32-.776V13.76a4.8,4.8,0,0,0-1.438-3.495,4.88,4.88,0,0,0-6.941,0A4.8,4.8,0,0,0,84,13.76V20.9a1.064,1.064,0,0,1-.32.776,1.082,1.082,0,0,1-1.541,0,1.067,1.067,0,0,1-.32-.776V7.717a1.067,1.067,0,0,1,.32-.776,1.082,1.082,0,0,1,1.541,0,1.064,1.064,0,0,1,.32.776V8.61a7.046,7.046,0,0,1,9.921.1A6.933,6.933,0,0,1,96,13.76V20.9a1.067,1.067,0,0,1-.32.776A1.053,1.053,0,0,1,94.91,22ZM78.546,22a1.05,1.05,0,0,1-.77-.322,1.064,1.064,0,0,1-.32-.776V19.693A7.455,7.455,0,0,1,72,22a7.365,7.365,0,0,1-5.4-2.252,7.466,7.466,0,0,1-2.236-5.438A7.467,7.467,0,0,1,66.6,8.871a7.6,7.6,0,0,1,10.8,0,7.467,7.467,0,0,1,2.237,5.439V20.9a1.067,1.067,0,0,1-.32.776A1.053,1.053,0,0,1,78.546,22ZM72,8.816a5.262,5.262,0,0,0-3.859,1.606,5.339,5.339,0,0,0-1.6,3.887,5.335,5.335,0,0,0,1.6,3.886,5.439,5.439,0,0,0,7.718,0,5.335,5.335,0,0,0,1.6-3.886,5.339,5.339,0,0,0-1.6-3.887A5.262,5.262,0,0,0,72,8.816ZM61.091,22a1.05,1.05,0,0,1-.77-.322A1.064,1.064,0,0,1,60,20.9v-8.24a3.733,3.733,0,0,0-1.119-2.72,3.8,3.8,0,0,0-5.4,0,3.735,3.735,0,0,0-1.118,2.72V20.9a1.067,1.067,0,0,1-.32.776,1.082,1.082,0,0,1-1.541,0,1.064,1.064,0,0,1-.32-.776v-8.24a3.736,3.736,0,0,0-1.119-2.72,3.8,3.8,0,0,0-5.4,0,3.735,3.735,0,0,0-1.118,2.72V20.9a1.067,1.067,0,0,1-.32.776,1.082,1.082,0,0,1-1.541,0,1.065,1.065,0,0,1-.321-.776V7.717a1.065,1.065,0,0,1,.321-.776,1.082,1.082,0,0,1,1.541,0,1.067,1.067,0,0,1,.32.776v.289a5.713,5.713,0,0,1,3.818-1.387A5.785,5.785,0,0,1,50.6,8.391a6.957,6.957,0,0,1,.669.783,6.944,6.944,0,0,1,.668-.783,5.962,5.962,0,0,1,8.482,0,5.867,5.867,0,0,1,1.76,4.271V20.9a1.067,1.067,0,0,1-.32.776A1.053,1.053,0,0,1,61.091,22Zm-24,0a1.05,1.05,0,0,1-.77-.322A1.067,1.067,0,0,1,36,20.9V13.76a4.8,4.8,0,0,0-1.438-3.495,4.881,4.881,0,0,0-6.942,0,4.8,4.8,0,0,0-1.438,3.495V20.9a1.067,1.067,0,0,1-.32.776,1.082,1.082,0,0,1-1.541,0A1.064,1.064,0,0,1,24,20.9V7.717a1.064,1.064,0,0,1,.32-.776,1.082,1.082,0,0,1,1.541,0,1.067,1.067,0,0,1,.32.776V8.61a7.046,7.046,0,0,1,9.921.1,6.932,6.932,0,0,1,2.079,5.046V20.9a1.064,1.064,0,0,1-.32.776A1.05,1.05,0,0,1,37.091,22ZM19.636,22a1.05,1.05,0,0,1-.77-.322,1.067,1.067,0,0,1-.32-.776V7.717a1.067,1.067,0,0,1,.32-.776,1.082,1.082,0,0,1,1.541,0,1.064,1.064,0,0,1,.32.776V20.9a1.064,1.064,0,0,1-.32.776A1.05,1.05,0,0,1,19.636,22Zm-12,0a7.362,7.362,0,0,1-5.4-2.252A7.466,7.466,0,0,1,0,14.31V1.1A1.067,1.067,0,0,1,.32.323,1.05,1.05,0,0,1,1.091,0a1.05,1.05,0,0,1,.77.323,1.064,1.064,0,0,1,.32.776V8.926l.055-.055a7.362,7.362,0,0,1,5.4-2.252,7.365,7.365,0,0,1,5.4,2.252,7.47,7.47,0,0,1,2.236,5.439,7.469,7.469,0,0,1-2.236,5.438A7.365,7.365,0,0,1,7.637,22Zm0-13.183a5.262,5.262,0,0,0-3.859,1.606,5.339,5.339,0,0,0-1.6,3.887,5.335,5.335,0,0,0,1.6,3.886A5.262,5.262,0,0,0,7.637,19.8,5.262,5.262,0,0,0,11.5,18.2a5.335,5.335,0,0,0,1.595-3.886A5.339,5.339,0,0,0,11.5,10.423,5.262,5.262,0,0,0,7.637,8.816Zm12-4.12a1.313,1.313,0,0,1-.961-.405,1.366,1.366,0,0,1,0-1.936,1.343,1.343,0,0,1,1.922,0,1.366,1.366,0,0,1,0,1.936A1.313,1.313,0,0,1,19.636,4.7Z"/>
</svg>
