<svg xmlns="http://www.w3.org/2000/svg" viewBox="0 0 13 13">
  <defs>
    <style>
      .cls-1 {
        fill: #475364;
      }
    </style>
  </defs>
  <path id="card" class="cls-1" d="M11,13H9a1.968,1.968,0,0,1-2-2V9A1.968,1.968,0,0,1,9,7h2a1.97,1.97,0,0,1,2,2v2A1.97,1.97,0,0,1,11,13ZM4,13H2a1.968,1.968,0,0,1-2-2V9A1.968,1.968,0,0,1,2,7H4A1.97,1.97,0,0,1,6,9v2A1.97,1.97,0,0,1,4,13Zm7-7H9A1.969,1.969,0,0,1,7,4V2A1.968,1.968,0,0,1,9,0h2a1.97,1.97,0,0,1,2,2V4A1.97,1.97,0,0,1,11,6ZM4,6H2A1.969,1.969,0,0,1,0,4V2A1.968,1.968,0,0,1,2,0H4A1.97,1.97,0,0,1,6,2V4A1.97,1.97,0,0,1,4,6Z"/>
</svg>
