<svg xmlns="http://www.w3.org/2000/svg" viewBox="0 0 18 16">
  <defs>
    <style>
      .cls-1 {
        fill: #fff;
      }
    </style>
  </defs>
  <path id="Clients" class="cls-1" d="M9.424,16A12.308,12.308,0,0,1,5,15.156l0-2.94c0-1.884,1.042-2.879,3.012-2.879h2.24c1.865,0,3.748.89,3.748,2.879v2.568A10.213,10.213,0,0,1,9.424,16Zm-6.515-2.75h0A4.273,4.273,0,0,1,0,12V9.337A2.759,2.759,0,0,1,.8,7.18,3.209,3.209,0,0,1,3,6.5H5.489A4.159,4.159,0,0,0,6.5,8.5,3.923,3.923,0,0,0,4,12.22v.874A3.956,3.956,0,0,1,2.909,13.251ZM15,13.112h0V12.22c0-2.835-3.465-3.713-3.5-3.721.012-.01,1.253-1.067,1.276-2H15a3.206,3.206,0,0,1,2.2.68A2.761,2.761,0,0,1,18,9.337V12A4.056,4.056,0,0,1,15,13.112ZM9.133,8.456A2.72,2.72,0,0,1,6.493,5.667,2.72,2.72,0,0,1,9.133,2.879a2.72,2.72,0,0,1,2.64,2.788A2.72,2.72,0,0,1,9.133,8.456ZM4.018,5.577A2.72,2.72,0,0,1,1.377,2.789,2.72,2.72,0,0,1,4.018,0,2.72,2.72,0,0,1,6.656,2.789c0,.029,0,.058,0,.086V2.9l0,.045a3.479,3.479,0,0,0-1.228,2.2A2.532,2.532,0,0,1,4.018,5.577Zm10.034,0a2.53,2.53,0,0,1-1.116-.264,3.462,3.462,0,0,0-1.522-2.567A2.727,2.727,0,0,1,14.052,0a2.72,2.72,0,0,1,2.64,2.788A2.72,2.72,0,0,1,14.052,5.576Z"/>
</svg>
