<svg xmlns="http://www.w3.org/2000/svg" viewBox="0 0 26 36">
  <defs>
    <style>
      .cls-1 {
        fill: #00d4ff;
      }
    </style>
  </defs>
  <path id="Symbol" class="cls-1" d="M2,36a2,2,0,1,1,1.732-3h17.31a1.766,1.766,0,0,0,1.714-1A2.562,2.562,0,0,0,23,31V12a1.969,1.969,0,0,0-2-2H5a1.969,1.969,0,0,0-2,2V24.268a2,2,0,1,1-2,0V11a3.77,3.77,0,0,1,.375-1.5A2.711,2.711,0,0,1,4,8H22a2.711,2.711,0,0,1,2.625,1.5A3.77,3.77,0,0,1,25,11V32a3.77,3.77,0,0,1-.375,1.5A2.711,2.711,0,0,1,22,35H3.732A2.008,2.008,0,0,1,2,36Zm14-6a.984.984,0,0,1-1-1V14a1,1,0,1,1,2,0V29A.984.984,0,0,1,16,30Zm-6,0a.984.984,0,0,1-1-1V14a1,1,0,1,1,2,0V29A.984.984,0,0,1,10,30ZM25,6H1A1,1,0,0,1,1,4H8V2a1.968,1.968,0,0,1,2-2h6a1.968,1.968,0,0,1,2,2V4h7a1,1,0,0,1,0,2ZM10,2V4h6V2Z"/>
</svg>
