<svg xmlns="http://www.w3.org/2000/svg" viewBox="0 0 14 18">
  <defs>
    <style>
      .cls-1 {
        fill: #fff;
      }
    </style>
  </defs>
  <path id="not-active-individual-client" class="cls-1" d="M12,18H2a1.968,1.968,0,0,1-2-2V13a7.862,7.862,0,0,1,.875-2A3.769,3.769,0,0,1,4,9a9.823,9.823,0,0,0,3,1,10.3,10.3,0,0,0,3-1,3.765,3.765,0,0,1,3.125,2A7.869,7.869,0,0,1,14,13v3A1.969,1.969,0,0,1,12,18ZM7,14.724H7L9.268,17,10,16.269,7.72,14,10,11.729,9.268,11,7,13.272,4.714,11,4,11.729,6.264,14,4,16.269,4.714,17,7,14.725ZM7,8a4,4,0,1,1,4-4A4.005,4.005,0,0,1,7,8Z"/>
</svg>
