<svg xmlns="http://www.w3.org/2000/svg" viewBox="0 0 14 14">
  <defs>
    <style>
      .cls-1 {
        fill: #475364;
      }
    </style>
  </defs>
  <path id="recycle" class="cls-1" d="M8.5,14a.756.756,0,0,1-.55-.239L6.4,12.132a.841.841,0,0,1,0-1.152L7.951,9.351a.752.752,0,0,1,1.1,0,.842.842,0,0,1,0,1.152l-.229.24H11.84l-.886-1.529A.838.838,0,0,1,11.217,8.1a.751.751,0,0,1,.4-.118.767.767,0,0,1,.666.392l1.6,2.766a.9.9,0,0,1-.659,1.315H8.822l.23.159a.842.842,0,0,1,0,1.152A.753.753,0,0,1,8.5,14ZM3.836,12.45H.781A.868.868,0,0,1,.1,11.958a.847.847,0,0,1,.013-.822L2.137,7.629,1.879,7.7a.741.741,0,0,1-.2.028.785.785,0,0,1-.751-.6.82.82,0,0,1,.55-1l2.125-.6A.738.738,0,0,1,3.8,5.5a.786.786,0,0,1,.751.6l.569,2.226a.82.82,0,0,1-.55,1,.729.729,0,0,1-.2.028.785.785,0,0,1-.751-.6l-.1-.38L2.157,10.743H3.836a.8.8,0,0,1,.778.814A.863.863,0,0,1,3.836,12.45ZM10.059,6.9a.729.729,0,0,1-.2-.028l-2.125-.6a.822.822,0,0,1-.55-1,.785.785,0,0,1,.751-.6.729.729,0,0,1,.2.028l.254.071L7,2.383l-.928,1.6a.766.766,0,0,1-.666.391A.754.754,0,0,1,5,4.258a.837.837,0,0,1-.261-1.119L6.334.392a.759.759,0,0,1,1.328,0L9.779,4.03l.1-.384a.785.785,0,0,1,.751-.6.764.764,0,0,1,.2.028.82.82,0,0,1,.55,1l-.569,2.226A.786.786,0,0,1,10.059,6.9Z" transform="translate(0)"/>
</svg>
